<?xml version="1.0" encoding="utf-8"?>
<!-- Generator: Adobe Illustrator 16.0.0, SVG Export Plug-In . SVG Version: 6.00 Build 0)  -->
<!DOCTYPE svg PUBLIC "-//W3C//DTD SVG 1.1//EN" "http://www.w3.org/Graphics/SVG/1.1/DTD/svg11.dtd">
<svg version="1.1" id="Layer_1" xmlns="http://www.w3.org/2000/svg" xmlns:xlink="http://www.w3.org/1999/xlink" x="0px" y="0px"
	 width="512px" height="512px" viewBox="0 0 512 512" enable-background="new 0 0 512 512" xml:space="preserve">
<g>
	<g>
		<path fill="#FFFFFF" d="M215.85,28.78l0.175-0.799v342.606l-107.94-107.703c-5.27-5.274-12.409-8.167-19.901-8.167
			s-14.582,2.893-19.864,8.167l-16.767,16.759c-5.27,5.27-8.184,12.292-8.184,19.78c0,7.493,2.893,14.52,8.163,19.789
			l184.607,184.624c5.291,5.291,12.338,8.184,19.834,8.163c7.539,0.021,14.59-2.872,19.873-8.163l184.623-184.624
			c5.266-5.27,8.163-12.292,8.163-19.789c0-7.488-2.901-14.511-8.163-19.78l-16.767-16.759c-5.262-5.274-12.288-8.167-19.78-8.167
			c-7.488,0-14.145,2.893-19.41,8.167L295.967,371.804V28.397C295.967,12.967,282.668,0,267.245,0h-23.714
			C228.108,0,215.85,13.35,215.85,28.78z"/>
	</g>
</g>
</svg>
