<?xml version="1.0" encoding="utf-8"?>
<!-- Generator: Adobe Illustrator 16.0.0, SVG Export Plug-In . SVG Version: 6.00 Build 0)  -->
<!DOCTYPE svg PUBLIC "-//W3C//DTD SVG 1.1//EN" "http://www.w3.org/Graphics/SVG/1.1/DTD/svg11.dtd">
<svg version="1.1" id="레이어_1" xmlns="http://www.w3.org/2000/svg" xmlns:xlink="http://www.w3.org/1999/xlink" x="0px"
	 y="0px" width="1600px" height="269px" viewBox="0 0 1600 269" enable-background="new 0 0 1600 269" xml:space="preserve">
<g id="layer101">
	<path fill="#2E201D" d="M242.5,267.4c-7.7-1.9-18-5.301-21.4-7c-1.4-0.801-3.1-1.4-3.8-1.4c-0.6,0-4.6-1.9-8.8-4.2
		c-4.2-2.399-9.1-5.1-11-6c-9.5-4.899-28.6-19.7-38.3-29.8c-5.9-6.1-18.2-21.6-18.2-22.9c0-0.399-1.4-2.699-3.1-5.1
		c-3.9-5.4-15.2-29.7-17.2-37c-0.8-3-2.4-8.8-3.6-12.9c-6.9-23.7-6.8-55.8,0.4-82.1c1.5-5.2,3-11.1,3.5-13c2.9-11.4,7.3-16,15.3-16
		c6.8,0.1,8.8,1.3,14.3,9c9.1,12.6,36.8,37.9,44.9,41c1.2,0.4,4.1,2.1,6.6,3.8c2.4,1.6,6,3.7,7.9,4.5c12.1,5.3,23.2,9.6,27.5,10.6
		c18.5,4.2,27.1,5.3,48,6.1c30.4,1.1,40.3,3.5,58,14.3c11.8,7.2,22,22.2,26,38.601c1.4,5.699,1.7,9.699,1.2,18.5
		c-0.5,11.1-1.101,13.5-8.2,32.5c-2.7,7.3-13.9,23.1-22.2,31.199c-7.8,7.7-23.2,18.9-25.899,18.9c-0.801,0-2.5,0.6-3.7,1.4
		c-1.2,0.8-6.5,2.899-11.7,4.699c-9.4,3.301-9.6,3.301-30,3.601C253.6,268.9,247,268.6,242.5,267.4z"/>
	<path fill="#2E201D" d="M57.4,234.5c-22.7-5.2-39.6-18.1-49-37.3C1.7,183.5,0,175.5,0,158.4c0-8.5,0.6-17.4,1.5-22.101
		c1.8-9.3,6.4-25.4,7.6-26.8c0.5-0.5,0.9-1.8,0.9-3c0-1.8,2-5.9,9.4-20c7.2-13.9,34.6-41,47.7-47.4c2.4-1.2,6.9-3.5,9.9-5.2
		c9.5-5.2,18.5-5.8,21.2-1.6c1.3,2.1,0.9,7.2-1.2,13.5c-3.9,11.8-5.9,22.9-7.1,39.7c-1,14.6-0.9,19.4,0.5,34.5
		c0.9,9.6,2.3,20,3.1,23c2.8,10.3,7.7,25.5,10.6,33c6.6,17,7.4,31.5,2.4,41.4c-3.9,7.699-6.7,10.3-15.1,14.3
		c-7,3.3-8.5,3.7-17.8,3.899C67.4,235.8,61.1,235.4,57.4,234.5z"/>
	<path fill="#FFFFFF" d="M1068.5,219c-7.3-0.7-20.1-4.8-21.5-7c-0.3-0.4-2-1.5-3.9-2.5c-4.3-2.2-13.8-11.8-16.8-17
		c-9.399-16.2-10.7-22.2-10.6-46c0-16.1,0.3-20.3,2.1-27.2c5.8-22,19-42.2,33.7-51.6c2.8-1.7,5.2-3.4,5.5-3.8
		c1.1-1.4,5-2.8,14.5-5.5c20.9-5.7,44.3-2.4,59.1,8.4c6.801,5,16.4,15.2,16.4,17.6c0,0.6,0.7,2.4,1.6,4.1c1.7,3.3,4.4,13.7,4.4,17.3
		c0,2.1-0.3,2.2-8.5,2.2c-8.3,0-8.5-0.1-8.5-2.4c0-4.2-4-13.1-8.5-18.9c-7.7-9.7-21.3-15.7-35.7-15.7c-21.8,0-42.2,15.2-52.899,39.5
		c-6.5,14.6-8.301,41.2-4.101,57.9c5.601,21.5,21.601,34.399,44,35.399c8.2,0.4,10.4,0.101,18-2.399
		c18.7-6.101,29.4-19.301,34.101-42.2c0.6-2.9,1.1-6,1.1-6.7c0-1.3-3.5-1.5-22.8-1.5h-22.9l0.4-5.7c0.3-3.2,0.6-6.399,0.8-7
		c0.3-1,7.6-1.3,32-1.3h31.5v2.2c0,2-2.9,19.6-5.1,30.5c-1.7,8.6-9.9,23.899-16.601,30.899c-3.2,3.4-7.399,7.101-9.3,8.301
		c-5.8,3.5-15.3,7.8-19.5,8.899C1094.9,219.2,1078,219.9,1068.5,219z"/>
	<path fill="#FFFFFF" d="M1241.9,217.9c-8.301-1.9-22.301-9.9-24.301-13.7c-0.8-1.5-2.399-3.601-3.6-4.7
		c-11.9-10.8-12.6-52.7-1.2-72.4c2-3.4,4.3-7.3,4.9-8.6c1.7-3.1,11.899-12.2,17-15.2c8.3-4.8,23.8-7.7,34.6-6.3
		c15.101,1.9,25.8,7.8,33.7,18.5c3.8,5.1,5.1,8.3,8.1,20c1.7,6.4,0.5,29.7-1.899,38.7c-7.3,27-29.9,45-55.8,44.7
		C1249,218.8,1243.9,218.4,1241.9,217.9z M1268.5,200.8c11.9-4.7,23.4-21,26.4-37.399c3.6-19.101-2.101-37.9-14-46
		c-2.9-2.1-7-4.4-8.9-5.1c-4.3-1.5-14.2-1.6-19.3-0.2c-5.7,1.6-13.8,6.8-18.2,11.9c-2.2,2.5-4.3,4.7-4.6,5
		c-1.4,1.1-6.801,16.1-8,21.9c-0.7,3.6-1,10.399-0.7,16.399c0.399,9,0.899,11,3.8,16.9C1233.4,201.4,1250.5,207.9,1268.5,200.8z"/>
	<path fill="#FFFFFF" d="M1366.9,216.7c-3.601-1.2-7.4-3-8.301-4c-1-1-3-2.4-4.6-3.2c-2.9-1.5-9.4-9.8-11.5-14.8l-1.2-3l-1.3,5.2
		c-0.7,2.8-1.5,8.399-1.9,12.399l-0.6,7.2l-7.7,0.3c-9.399,0.3-9,2-4.8-20.6c1.7-8.9,3-17.101,3-18.4s2.2-15.1,5-30.8
		c6.8-38.9,14.8-85.6,15.6-90.7l0.601-4.3h7.899c6.7,0,7.9,0.2,7.9,1.7c0,0.9-1.5,10.2-3.4,20.7c-1.899,10.5-3.899,22.9-4.5,27.6
		c-0.699,4.7-1.399,9.9-1.8,11.5l-0.5,3l2.8-3.7c3.5-4.5,14-12.8,16.301-12.8c0.899,0,3.6-0.7,6.1-1.6c6.8-2.4,19.1-2.1,27.9,0.6
		c5.8,1.8,8.5,3.4,13.399,7.7c10.5,9.4,15.601,20.9,16.4,37.3c0.7,15.5-2.3,28.9-10.601,45.9c-2.1,4.399-13.399,17.6-16.399,19.3
		c-15.2,8.3-19.7,9.8-30.2,9.8C1375.9,219,1371.2,218.2,1366.9,216.7z M1392,200.9c7.9-3.2,15.1-9.7,19.7-17.601
		c5.5-9.5,6.3-11.7,7.899-21.3c4.101-25.2-1.8-41.3-17.8-48.5c-5.2-2.4-7-2.7-13.7-2.3c-14.8,0.8-26.5,9.2-34.5,25
		c-5.6,10.899-7.1,19.7-6.3,34.8c0.7,11.2,2,14.9,8.2,22.1C1364.2,203.3,1378.6,206.4,1392,200.9z"/>
	<path fill="#FFFFFF" d="M1470.5,217.7c-4.2-1.4-10.7-4.5-11.5-5.601c-0.3-0.3-2.2-1.899-4.3-3.399c-2.5-1.9-4.8-5.101-6.9-9.5
		c-2.8-5.8-3.2-7.8-3.2-14.7c0-6.6,0.5-9.1,2.9-14.3c2.5-5.5,4.2-7.601,11.3-13.3c0.7-0.601,4.101-2.301,7.5-3.9
		c7.2-3.2,16-4.4,44.101-6c9.8-0.5,18.1-1.1,18.3-1.4c0.899-0.8,1.6-15.399,0.899-18.899c-1-5.3-7.699-11.6-15.1-14.1
		c-5.1-1.8-16.3-2.1-21.4-0.6c-7,2-13.8,7-16.3,12.1l-2.3,4.8l-8.3,0.1h-8.3l0.699-3.7c2.2-12.2,13.101-22.5,27.9-26.4
		c20.5-5.4,44-0.3,52.9,11.4c7.5,9.8,8.199,18.8,3.699,45.2c-1.6,9.3-4.699,27-6.8,39.3l-3.8,22.2h-7.7c-7.6,0-7.8-0.1-7.399-2.2
		c3.1-14.8,3.3-17.6,0.699-12.8c-2.199,4.2-7.1,7.9-16.899,12.7c-6.7,3.3-8.3,3.6-17,4C1477.9,218.9,1473.1,218.5,1470.5,217.7z
		 M1501.9,200.6c7.399-3.199,16.5-12,18.8-18.199c1.8-4.801,5.7-22.301,5.1-22.9c-0.7-0.7-32.6,1.4-39.8,2.6
		c-9.8,1.601-18.7,6.301-22.1,11.801c-3.9,6-4.5,10.199-2.5,15.5c2.1,5.399,7,10.1,13.199,12.6
		C1481.7,204.9,1493.2,204.3,1501.9,200.6z"/>
	<path fill="#FFFFFF" d="M719.3,215.9c-3.899-2.5-5.7-7.5-5-13.601c0.8-7.6,6.7-11.5,15.101-9.899c2.5,0.5,4.3,1.8,6.5,4.8
		c4.6,6.2,4.1,12.3-1.4,18.1c-2.1,2.2-3.4,2.7-7.3,2.7C724.2,218,721.3,217.2,719.3,215.9z"/>
	<path fill="#FFFFFF" d="M912.3,216c-4-2.4-6.3-6.7-6.3-12c0-3.2,0.7-4.8,3.3-7.6c2.8-3.101,4.2-3.7,8.4-4.101
		c4.7-0.5,5.3-0.3,9.1,3.2c6.601,5.9,6.9,13,0.7,19.2c-2.7,2.7-4,3.3-7.6,3.3C917.3,218,914.2,217.2,912.3,216z"/>
	<path fill="#FFFFFF" d="M568,215.9c0-0.601,1.5-2.801,3.3-4.9c1.7-2,5.9-7,9.2-11s7.4-8.8,9-10.6c1.7-1.801,5.5-6.2,8.5-10
		c3-3.7,7.3-8.801,9.5-11.301c2.2-2.6,6.4-7.699,9.4-11.399s5.8-6.7,6.199-6.7c0.4,0,1-0.8,1.301-1.7c0.3-1,2.899-4.2,5.699-7.1
		c5.801-6.2,5.9-5.7-1.199-18.3c-2.7-4.8-4.9-9.4-4.9-10.2c0-0.9-0.4-1.8-0.9-2.1c-1.1-0.7-9.1-15.4-9.1-16.7c0-0.6-2.2-4.7-5-9.3
		c-2.7-4.6-5-8.8-5-9.5c0-0.6-1.8-4.3-4-8.2s-4-7.3-4-7.5c0-0.3,4.3-0.3,9.6-0.2l9.5,0.3l4.4,8.5c4.2,8.1,8.1,15.9,12.4,24.5
		c1.1,2.2,3.3,6.7,5,10c4.6,9.2,6.8,13.7,8.8,17.8l1.8,3.8l3.5-3.9c1.9-2.2,5.5-6.3,8-9.2c4.3-5,8.5-9.9,19.1-22.2
		c2.601-2.9,8.601-10,13.4-15.8c12.2-14.7,11-14,22.2-14c10.6,0,10.5-0.2,3.8,7.3c-2.2,2.5-6.9,8-10.5,12.3c-3.6,4.4-8,9.3-9.7,11
		c-1.8,1.7-3.3,3.4-3.3,3.9c0,0.4-2.4,3.4-5.2,6.5c-5.5,6-7,7.7-23.399,26.9l-9.801,11.4l4.301,8.601c5.3,10.6,5.6,11,10.3,19.3
		c2.1,3.7,3.8,7.2,3.8,7.8s2.3,4.9,5,9.6c2.8,4.7,5,8.9,5,9.5c0,0.601,2.3,5.101,5,10.101c2.8,5,5.3,10.2,5.6,11.5
		c0.601,2.3,0.5,2.3-8.3,2.3H677.4l-9.801-19.2c-5.3-10.6-10.399-20.399-11.1-21.8c-0.8-1.4-2-3.8-2.8-5.5
		c-0.7-1.6-3.4-6.9-5.9-11.6l-4.6-8.601l-5.9,7.101c-3.2,3.899-7.2,8.399-8.899,10.1c-1.7,1.7-3.5,3.8-4,4.8
		c-0.5,0.9-2.9,3.8-5.2,6.4c-12.8,14.399-16.5,18.7-24.2,28.1l-8.4,10.2h-9.3C571.1,217,568,216.6,568,215.9z"/>
	<path fill="#FFFFFF" d="M767,216.3c-0.1-0.8,2.3-14.3,13-75.8c2.8-15.9,5-30.1,5-31.5s2-13.1,4.3-26l4.3-23.5l32.5,0.1l32.4,0.1
		l7,2.7c3.9,1.5,8.7,3.8,10.7,5.1c2.1,1.4,4.2,2.5,4.7,2.5c1.399,0,13,11.8,14.6,15c0.8,1.6,2.6,4.5,3.9,6.4
		c1.199,1.9,3.399,6.7,4.699,10.8c2.2,6.8,2.4,8.7,2.301,28.8c0,20.7-0.101,21.8-2.7,29c-4.7,13.1-11.2,24.1-19.2,32.2
		c-11.3,11.399-14.7,13.8-26,18.3c-14.4,5.8-14.3,5.8-54.2,6.2C783.8,217,767,216.8,767,216.3z M845.1,199.1
		C851.7,197.4,862.7,190.5,869.9,183.7c3.399-3.2,6.1-6.101,6.1-6.4s1.4-2.5,3-5c4.7-6.899,5.7-9.2,8.4-19.899
		C892,135.1,891.8,124.2,886.8,106c-3.3-11.6-14.2-23-27.1-28.1l-8.2-3.3l-21.6-0.4c-19.101-0.3-21.7-0.2-22.2,1.2
		c-0.4,0.9-1.101,5.6-1.8,10.4c-0.601,4.8-2.9,18.6-5.101,30.7s-4.399,25.4-5,29.5c-0.5,4.1-2.899,18.2-5.2,31.3l-4.3,23.8
		L813.4,200.7C829.8,200.5,842.3,199.8,845.1,199.1z"/>
	<path fill="#FFFFFF" d="M1159,216.3c0-0.5,1.7-11.1,3.9-23.8c2.199-12.6,5.199-30,6.6-38.5s3.7-21.3,5-28.5
		c1.4-7.1,2.5-14.2,2.5-15.6c0-2.6,6.9-42.4,9.2-52.6l1.1-5.3h7.9c4.3,0,7.8,0.4,7.8,0.8c0,0.4-1.3,7.7-3,16.2c-1.6,8.5-3,16.6-3,18
		c0.1,1.4-2.2,15.3-4.9,31c-9.899,56.5-15.1,87.6-15.699,93.3l-0.5,5.7h-8.5C1162.8,217,1159,216.7,1159,216.3z"/>
	<path fill="#FFFFFF" d="M1557,215.4c0-0.9,0.6-5.5,1.4-10.301c0.8-4.699,1.899-11.699,2.5-15.6c0.5-3.8,2.8-16.9,5-29
		c2.3-12.1,4.1-23.1,4.1-24.6c0-1.5,2.2-14.8,4.9-29.5c2.699-14.8,5.399-30.9,6.1-35.9c0.6-4.9,1.6-11.1,2.1-13.7l1.101-4.8h7.899
		h7.9v2.8c0,1.5-2.2,15.3-4.9,30.7c-9.6,54.1-15.199,87-15.1,88.5c0,0.8-1.6,10.8-3.7,22.2l-3.8,20.8h-7.7
		C1558.3,217,1557,216.7,1557,215.4z"/>
	<path fill="#2E201D" d="M449.5,149.1c-7.4-1.3-21.5-8.399-28.7-14.6c-9.8-8.5-18.2-15.1-22.1-17.4c-2.101-1.3-4.4-2.9-5.101-3.6
		c-1.1-1.2-8.8-5.5-21.1-11.9c-4.9-2.5-21.8-9.3-26-10.5c-20.9-5.6-40.2-8.2-58.7-8c-17.6,0.3-19.8-0.5-19.8-7.2c0-2.6,0.7-5,2-6.6
		c1.1-1.4,2-3.1,2-3.8s1.1-2.4,2.5-3.9s4.3-5.1,6.4-7.9c4-5.5,19.5-20.7,24-23.5c1.399-0.9,5.199-3.6,8.5-5.9
		C316.6,21.9,319.6,20,320,20s4-1.8,7.9-4c8-4.3,20-8.9,33.6-12.7c7.9-2.3,11.5-2.6,28.8-3C413.8-0.3,424,1,443,7
		c23,7.3,39.3,19.1,51.3,37c5.8,8.7,7.101,11.7,10,21.9c4.101,15.2,2.5,41.8-3.5,55.1c-2.5,5.7-10.7,18-11.8,18
		c-0.5,0-2.4,1.3-4.2,2.9c-6.1,5.3-10.899,7-21,7.5C458.7,149.7,452.3,149.5,449.5,149.1z"/>
</g>
<g id="layer102">
	<path fill="#FF6600" d="M242.5,267.4c-7.7-1.9-18-5.301-21.4-7c-1.4-0.801-3.1-1.4-3.8-1.4c-0.6,0-4.6-1.9-8.8-4.2
		c-4.2-2.399-9.1-5.1-11-6c-9.5-4.899-28.6-19.7-38.3-29.8c-5.9-6.1-18.2-21.6-18.2-22.9c0-0.399-1.4-2.699-3.1-5.1
		c-3.9-5.4-15.2-29.7-17.2-37c-0.8-3-2.4-8.8-3.6-12.9c-6.9-23.7-6.8-55.8,0.4-82.1c1.5-5.2,3-11.1,3.5-13c2.9-11.4,7.3-16,15.3-16
		c6.8,0.1,8.8,1.3,14.3,9c9.1,12.6,36.8,37.9,44.9,41c1.2,0.4,4.1,2.1,6.6,3.8c2.4,1.6,6,3.7,7.9,4.5c12.1,5.3,23.2,9.6,27.5,10.6
		c18.5,4.2,27.1,5.3,48,6.1c30.4,1.1,40.3,3.5,58,14.3c11.8,7.2,22,22.2,26,38.601c1.4,5.699,1.7,9.699,1.2,18.5
		c-0.5,11.1-1.101,13.5-8.2,32.5c-2.7,7.3-13.9,23.1-22.2,31.199c-7.8,7.7-23.2,18.9-25.899,18.9c-0.801,0-2.5,0.6-3.7,1.4
		c-1.2,0.8-6.5,2.899-11.7,4.699c-9.4,3.301-9.6,3.301-30,3.601C253.6,268.9,247,268.6,242.5,267.4z"/>
	<path fill="#FF6600" d="M57.4,234.5c-22.7-5.2-39.6-18.1-49-37.3C1.7,183.5,0,175.5,0,158.4c0-8.5,0.6-17.4,1.5-22.101
		c1.8-9.3,6.4-25.4,7.6-26.8c0.5-0.5,0.9-1.8,0.9-3c0-1.8,2-5.9,9.4-20c7.2-13.9,34.6-41,47.7-47.4c2.4-1.2,6.9-3.5,9.9-5.2
		c9.5-5.2,18.5-5.8,21.2-1.6c1.3,2.1,0.9,7.2-1.2,13.5c-3.9,11.8-5.9,22.9-7.1,39.7c-1,14.6-0.9,19.4,0.5,34.5
		c0.9,9.6,2.3,20,3.1,23c2.8,10.3,7.7,25.5,10.6,33c6.6,17,7.4,31.5,2.4,41.4c-3.9,7.699-6.7,10.3-15.1,14.3
		c-7,3.3-8.5,3.7-17.8,3.899C67.4,235.8,61.1,235.4,57.4,234.5z"/>
	<path fill="#FF6600" d="M449.5,149.1c-7.4-1.3-21.5-8.399-28.7-14.6c-9.8-8.5-18.2-15.1-22.1-17.4c-2.101-1.3-4.4-2.9-5.101-3.6
		c-1.1-1.2-8.8-5.5-21.1-11.9c-4.9-2.5-21.8-9.3-26-10.5c-20.9-5.6-40.2-8.2-58.7-8c-17.6,0.3-19.8-0.5-19.8-7.2c0-2.6,0.7-5,2-6.6
		c1.1-1.4,2-3.1,2-3.8s1.1-2.4,2.5-3.9s4.3-5.1,6.4-7.9c4-5.5,19.5-20.7,24-23.5c1.399-0.9,5.199-3.6,8.5-5.9
		C316.6,21.9,319.6,20,320,20s4-1.8,7.9-4c8-4.3,20-8.9,33.6-12.7c7.9-2.3,11.5-2.6,28.8-3C413.8-0.3,424,1,443,7
		c23,7.3,39.3,19.1,51.3,37c5.8,8.7,7.101,11.7,10,21.9c4.101,15.2,2.5,41.8-3.5,55.1c-2.5,5.7-10.7,18-11.8,18
		c-0.5,0-2.4,1.3-4.2,2.9c-6.1,5.3-10.899,7-21,7.5C458.7,149.7,452.3,149.5,449.5,149.1z"/>
</g>
</svg>
